<svg width="25" height="25" viewBox="0 0 25 25" fill="none" xmlns="http://www.w3.org/2000/svg">
<path fill-rule="evenodd" clip-rule="evenodd" d="M19.7973 17.5803C19.4972 18.4296 18.3045 19.1323 17.3534 19.3377C16.7022 19.476 15.8532 19.5853 12.9922 18.3998C9.77897 17.0685 5.31701 12.3264 5.31701 9.1707C5.31701 7.56421 6.24326 5.69354 7.86297 5.69354C8.64232 5.69354 8.81412 5.70874 9.07059 6.32393C9.37062 7.04873 10.1027 8.83445 10.1898 9.01751C10.5496 9.76845 9.82378 10.2081 9.29716 10.8619C9.12909 11.0586 8.93862 11.2714 9.15151 11.6375C9.36316 11.9962 10.0952 13.1893 11.1708 14.1469C12.5602 15.3848 13.6869 15.78 14.0903 15.9481C14.3903 16.0727 14.7489 16.0436 14.968 15.8095C15.2456 15.5094 15.5905 15.0114 15.9416 14.5208C16.1893 14.1696 16.5043 14.1257 16.8342 14.2503C17.0571 14.3275 19.8894 15.6428 20.0089 15.8533C20.0973 16.0065 20.0973 16.731 19.7973 17.5803ZM12.5528 0H12.5465C5.68302 0 0.100586 5.58412 0.100586 12.4497C0.100586 15.172 0.978297 17.6977 2.47101 19.7462L0.919781 24.3723L5.7042 22.8435C7.67249 24.1461 10.0217 24.8994 12.5528 24.8994C19.4163 24.8994 25 19.3153 25 12.4497C25 5.58412 19.4163 0 12.5528 0Z" fill="#D2D2D2" fill-opacity="0.9"/>
</svg>
