<svg width="25" height="25" viewBox="0 0 25 25" fill="none" xmlns="http://www.w3.org/2000/svg">
<path fill-rule="evenodd" clip-rule="evenodd" d="M12.5 0C19.3759 0 24.9497 5.71432 24.9497 12.7646C24.9497 18.403 21.3866 23.1862 16.4428 24.8757C15.8116 25.0014 15.5875 24.6028 15.5875 24.2629C15.5875 23.8421 15.6024 22.4677 15.6024 20.7596C15.6024 19.5694 15.2041 18.7926 14.7571 18.3967C17.5297 18.0805 20.4429 17.001 20.4429 12.0983C20.4429 10.704 19.9598 9.56611 19.1606 8.67223C19.29 8.34978 19.7171 7.05144 19.0386 5.29355C19.0386 5.29355 17.9953 4.95152 15.6186 6.60235C14.6239 6.31974 13.5582 6.17754 12.5 6.17256C11.4418 6.17754 10.3773 6.31974 9.38382 6.60235C7.00469 4.95152 5.95892 5.29355 5.95892 5.29355C5.2829 7.05144 5.70992 8.34978 5.83815 8.67223C5.04262 9.56611 4.55584 10.704 4.55584 12.0983C4.55584 16.9886 7.46284 18.0846 10.2279 18.4071C9.87185 18.7258 9.5494 19.288 9.43736 20.1134C8.72773 20.4396 6.92501 21.0041 5.81449 19.0532C5.81449 19.0532 5.15591 17.8268 3.90596 17.7372C3.90596 17.7372 2.69212 17.721 3.8213 18.5128C3.8213 18.5128 4.63676 18.905 5.20322 20.3803C5.20322 20.3803 5.93402 22.6585 9.39752 21.8866C9.40375 22.9536 9.41495 23.9591 9.41495 24.2629C9.41495 24.6003 9.18587 24.9952 8.56463 24.8769C3.61712 23.1899 0.050293 18.4043 0.050293 12.7646C0.050293 5.71432 5.62526 0 12.5 0Z" fill="#D2D2D2" fill-opacity="0.9"/>
</svg>
