<svg width="25" height="25" viewBox="0 0 25 25" fill="none" xmlns="http://www.w3.org/2000/svg">
<path d="M23.9675 0H0.931573C0.417026 0 0 0.417026 0 0.931573V23.9674C0 24.4821 0.417026 24.8991 0.931573 24.8991H23.9678C24.4824 24.8991 24.8994 24.482 24.8994 23.9674V0.931573C24.8991 0.417026 24.482 0 23.9675 0ZM6.61513 20.4888C6.61513 20.8319 6.33718 21.1097 5.99408 21.1097H3.50771C3.16491 21.1097 2.88666 20.8318 2.88666 20.4888V9.62128C2.88666 9.27813 3.16491 9.00023 3.50771 9.00023H5.99408C6.33718 9.00023 6.61513 9.27813 6.61513 9.62128V20.4888ZM6.61513 6.46819C6.61513 6.81134 6.33718 7.08924 5.99408 7.08924H3.50771C3.16491 7.08924 2.88666 6.81129 2.88666 6.46819V4.26037C2.88666 3.91722 3.16491 3.63932 3.50771 3.63932H5.99408C6.33718 3.63932 6.61513 3.91722 6.61513 4.26037V6.46819ZM22.0125 20.4888C22.0125 20.8319 21.7343 21.1097 21.3914 21.1097H18.905C18.5619 21.1097 18.284 20.8318 18.284 20.4888V15.9001C18.284 14.3785 18.2045 13.3945 18.0449 12.9476C17.8856 12.5008 17.627 12.1536 17.2686 11.9062C16.9103 11.6584 16.4792 11.5348 15.9749 11.5348C15.3291 11.5348 14.7496 11.7117 14.2366 12.0654C13.7236 12.4194 13.3721 12.888 13.1818 13.4718C12.9917 14.0556 12.8967 15.135 12.8967 16.7093V20.4888C12.8967 20.8319 12.6185 21.1097 12.2757 21.1097H9.78927C9.44648 21.1097 9.16823 20.8318 9.16823 20.4888V9.62128C9.16823 9.27813 9.44643 9.00023 9.78927 9.00023H12.0102C12.3533 9.00023 12.6312 9.27813 12.6312 9.62128V10.4491C12.6312 10.7923 12.7993 10.8475 13.0299 10.5938C14.19 9.31913 15.6051 8.68164 17.2754 8.68164C18.098 8.68164 18.8498 8.82975 19.5311 9.12601C20.2121 9.42223 20.7275 9.80044 21.0769 10.2603C21.4262 10.7202 21.6697 11.2422 21.8066 11.826C21.9436 12.4098 22.0125 13.2457 22.0125 14.3338V20.4888H22.0125Z" fill="#D2D2D2" fill-opacity="0.9"/>
</svg>
